<?xml version="1.0" encoding="UTF-8" standalone="no"?>
<!DOCTYPE svg PUBLIC "-//W3C//DTD SVG 1.1//EN"
 "http://www.w3.org/Graphics/SVG/1.1/DTD/svg11.dtd">
<!-- Generated by graphviz version 14.0.2 (20251019.1705)
 -->
<!-- Title: Workflow Pages: 1 -->
<svg width="368pt" height="265pt"
 viewBox="0.00 0.00 368.00 265.00" xmlns="http://www.w3.org/2000/svg" xmlns:xlink="http://www.w3.org/1999/xlink">
<g id="graph0" class="graph" transform="scale(1 1) rotate(0) translate(4 261)">
<title>Workflow</title>
<polygon fill="white" stroke="none" points="-4,4 -4,-261 364.25,-261 364.25,4 -4,4"/>
<!-- ChunkExporterAgent -->
<g id="node1" class="node">
<title>ChunkExporterAgent</title>
<polygon fill="lightgreen" stroke="black" points="246.25,-257 114,-257 114,-216 246.25,-216 246.25,-257"/>
<text xml:space="preserve" text-anchor="middle" x="180.12" y="-239.7" font-family="Times,serif" font-size="14.00">ChunkExporterAgent</text>
<text xml:space="preserve" text-anchor="middle" x="180.12" y="-223.2" font-family="Times,serif" font-size="14.00">(Start)</text>
</g>
<!-- SecretsDetector1 -->
<g id="node2" class="node">
<title>SecretsDetector1</title>
<polygon fill="lightblue" stroke="black" points="108.25,-180 0,-180 0,-144 108.25,-144 108.25,-180"/>
<text xml:space="preserve" text-anchor="middle" x="54.12" y="-156.95" font-family="Times,serif" font-size="14.00">SecretsDetector1</text>
</g>
<!-- ChunkExporterAgent&#45;&gt;SecretsDetector1 -->
<g id="edge5" class="edge">
<title>ChunkExporterAgent&#45;&gt;SecretsDetector1</title>
<path fill="none" stroke="black" d="M145.69,-215.69C129.61,-206.44 110.38,-195.37 93.71,-185.78"/>
<polygon fill="black" stroke="black" points="85.28,-180.93 96.19,-182.01 88.56,-182.81 93.95,-185.91 93.95,-185.91 93.95,-185.91 88.56,-182.81 91.7,-189.81 85.28,-180.93"/>
</g>
<!-- SecretsDetector2 -->
<g id="node3" class="node">
<title>SecretsDetector2</title>
<polygon fill="lightblue" stroke="black" points="234.25,-180 126,-180 126,-144 234.25,-144 234.25,-180"/>
<text xml:space="preserve" text-anchor="middle" x="180.12" y="-156.95" font-family="Times,serif" font-size="14.00">SecretsDetector2</text>
</g>
<!-- ChunkExporterAgent&#45;&gt;SecretsDetector2 -->
<g id="edge6" class="edge">
<title>ChunkExporterAgent&#45;&gt;SecretsDetector2</title>
<path fill="none" stroke="black" d="M180.12,-215.69C180.12,-208.17 180.12,-199.44 180.12,-191.29"/>
<polygon fill="black" stroke="black" points="180.13,-181.54 184.63,-191.54 180.13,-185.32 180.13,-191.54 180.13,-191.54 180.13,-191.54 180.13,-185.32 175.63,-191.54 180.13,-181.54"/>
</g>
<!-- SecretsDetector3 -->
<g id="node4" class="node">
<title>SecretsDetector3</title>
<polygon fill="lightblue" stroke="black" points="360.25,-180 252,-180 252,-144 360.25,-144 360.25,-180"/>
<text xml:space="preserve" text-anchor="middle" x="306.12" y="-156.95" font-family="Times,serif" font-size="14.00">SecretsDetector3</text>
</g>
<!-- ChunkExporterAgent&#45;&gt;SecretsDetector3 -->
<g id="edge7" class="edge">
<title>ChunkExporterAgent&#45;&gt;SecretsDetector3</title>
<path fill="none" stroke="black" d="M214.56,-215.69C230.64,-206.44 249.87,-195.37 266.54,-185.78"/>
<polygon fill="black" stroke="black" points="274.97,-180.93 268.55,-189.81 271.69,-182.81 266.3,-185.91 266.3,-185.91 266.3,-185.91 271.69,-182.81 264.06,-182.01 274.97,-180.93"/>
</g>
<!-- fan_in::ChunksAgregatorAgent::e1432546 -->
<g id="node6" class="node">
<title>fan_in::ChunksAgregatorAgent::e1432546</title>
<ellipse fill="#eedd82" stroke="black" cx="180.12" cy="-90" rx="32.93" ry="18"/>
<text xml:space="preserve" text-anchor="middle" x="180.12" y="-84.95" font-family="Times,serif" font-size="14.00">fan&#45;in</text>
</g>
<!-- SecretsDetector1&#45;&gt;fan_in::ChunksAgregatorAgent::e1432546 -->
<g id="edge1" class="edge">
<title>SecretsDetector1&#45;&gt;fan_in::ChunksAgregatorAgent::e1432546</title>
<path fill="none" stroke="black" d="M85.6,-143.52C104.63,-132.94 128.83,-119.5 147.98,-108.86"/>
<polygon fill="black" stroke="black" points="156.69,-104.02 150.13,-112.81 153.38,-105.86 147.95,-108.88 147.95,-108.88 147.95,-108.88 153.38,-105.86 145.76,-104.94 156.69,-104.02"/>
</g>
<!-- SecretsDetector2&#45;&gt;fan_in::ChunksAgregatorAgent::e1432546 -->
<g id="edge2" class="edge">
<title>SecretsDetector2&#45;&gt;fan_in::ChunksAgregatorAgent::e1432546</title>
<path fill="none" stroke="black" d="M180.12,-143.7C180.12,-136.32 180.12,-127.52 180.12,-119.25"/>
<polygon fill="black" stroke="black" points="180.13,-109.32 184.63,-119.32 180.13,-113.1 180.13,-119.32 180.13,-119.32 180.13,-119.32 180.13,-113.1 175.63,-119.32 180.13,-109.32"/>
</g>
<!-- SecretsDetector3&#45;&gt;fan_in::ChunksAgregatorAgent::e1432546 -->
<g id="edge3" class="edge">
<title>SecretsDetector3&#45;&gt;fan_in::ChunksAgregatorAgent::e1432546</title>
<path fill="none" stroke="black" d="M274.65,-143.52C255.62,-132.94 231.42,-119.5 212.27,-108.86"/>
<polygon fill="black" stroke="black" points="203.56,-104.02 214.49,-104.94 206.87,-105.86 212.3,-108.88 212.3,-108.88 212.3,-108.88 206.87,-105.86 210.12,-112.81 203.56,-104.02"/>
</g>
<!-- ChunksAgregatorAgent -->
<g id="node5" class="node">
<title>ChunksAgregatorAgent</title>
<polygon fill="lightblue" stroke="black" points="252.62,-36 107.62,-36 107.62,0 252.62,0 252.62,-36"/>
<text xml:space="preserve" text-anchor="middle" x="180.12" y="-12.95" font-family="Times,serif" font-size="14.00">ChunksAgregatorAgent</text>
</g>
<!-- fan_in::ChunksAgregatorAgent::e1432546&#45;&gt;ChunksAgregatorAgent -->
<g id="edge4" class="edge">
<title>fan_in::ChunksAgregatorAgent::e1432546&#45;&gt;ChunksAgregatorAgent</title>
<path fill="none" stroke="black" d="M180.12,-71.7C180.12,-64.32 180.12,-55.52 180.12,-47.25"/>
<polygon fill="black" stroke="black" points="180.13,-37.32 184.63,-47.32 180.13,-41.1 180.13,-47.32 180.13,-47.32 180.13,-47.32 180.13,-41.1 175.63,-47.32 180.13,-37.32"/>
</g>
</g>
</svg>
